{"title":"Rambo IV (2008) 720p BRRip [Dual Audio][Eng-Hind] ~ CT PATEL","uid":7782063,"size":748828782,"categoryP":"video","categoryS":"hd___movies","magnet":"?xt=urn:btih:72de99e368235f66bf73fa38ce70b795d4ff0022&amp;dn=Rambo+IV+%282008%29+720p+BRRip+%5BDual+Audio%5D%5BEng-Hind%5D+%7E+CT+PATEL&amp;tr=udp%3A%2F%2Ftracker.openbittorrent.com%3A80&amp;tr=udp%3A%2F%2Fopen.demonii.com%3A1337&amp;tr=udp%3A%2F%2Ftracker.coppersurfer.tk%3A6969&amp;tr=udp%3A%2F%2Fexodus.desync.com%3A6969","seeders":0,"leechers":1,"uploader":"ct2904","files":9,"time":1351798730,"description":"\nCover :- \n\nGeneral\nFormat                                   : Matroska\nFile size                                : 702 MiB\nDuration                                 : 1h 27mn\nOverall bit rate                         : 1 119 Kbps\nMovie name                               : Rambo IV (2008) 720p BRRip [Dual Audio][Eng-Hind] ~ CT PATEL\n\nVideo\nID                                       : 1\nFormat                                   : AVC\nFormat/Info                              : Advanced Video r\nDuration                                 : 1h 27mn\nBit rate                                 : 949 Kbps\nWidth                                    : 1 280 pixels\nHeight                                   : 528 pixels\nFrame rate                               : 25.000 fps\nStream size                              : 578 MiB (82%)\nTitle                                    : Rambo IV (2008) 720p BRRip [Dual Audio][Eng-Hind] ~ CT PATEL\n\nAudio #1\nID                                       : 2\nFormat                                   : AC-3\nFormat/Info                              : Audio Coding 3\nFormat profile                           : Dolby Digital\nDuration                                 : 1h 27mn\nBit rate                                 : 80.0 Kbps\nChannel(s)                               : 2 channels\nChannel positions                        : Front: L R\nStream size                              : 50.2 MiB (7%)\nTitle                                    : English Audio ~ CT PATEL\nLanguage                                 : English\n\nAudio #2\nID                                       : 3\nFormat                                   : AC-3\nFormat/Info                              : Audio Coding 3\nDuration                                 : 1h 27mn\nBit rate                                 : 96.0 Kbps\nChannel(s)                               : 2 channels\nChannel positions                        : Front: L R\nDelay relative to video                  : 422ms\nStream size                              : 60.3 MiB (9%)\nTitle                                    : Hindi Audio ~ CT PATEL\nLanguage                                 : Hindi\n\nScreenShots:-\n\n","torrent":{"xt":"urn:btih:72de99e368235f66bf73fa38ce70b795d4ff0022","amp;dn":"Rambo+IV+%282008%29+720p+BRRip+%5BDual+Audio%5D%5BEng-Hind%5D+%7E+CT+PATEL","amp;tr":["udp%3A%2F%2Ftracker.openbittorrent.com%3A80","udp%3A%2F%2Fopen.demonii.com%3A1337","udp%3A%2F%2Ftracker.coppersurfer.tk%3A6969","udp%3A%2F%2Fexodus.desync.com%3A6969"],"infoHash":"72de99e368235f66bf73fa38ce70b795d4ff0022","infoHashBuffer":{"type":"Buffer","data":[114,222,153,227,104,35,95,102,191,115,250,56,206,112,183,149,212,255,0,34]},"announce":[],"urlList":[]}}